<svg xmlns="http://www.w3.org/2000/svg" width="1200" height="630" viewBox="0 0 1200 630" role="img" aria-label="RightRefer. The right referral. Your way in."><rect width="1200" height="630" fill="#FBF8F2"/><g transform="translate(69 55) scale(.78)"><g transform="scale(.666667)"><path fill="#0A66C2" d="M9.4 28.6L25.8 12.2C28.5 9.5 32.1 8 36 8H78.8C82.7 8 84.7 9.5 82.5 11.7L61.5 32.7C59.4 34.8 56.5 36 53.5 36H12.5C6.8 36 5.4 32.6 9.4 28.6Z"/><path fill="#149FA5" d="M88 17.5V59.5C88 63.2 86.5 66.7 83.9 69.3L67 86.2C63.3 89.9 60 88.5 60 83.5V47.5C60 42.7 61.9 38.1 65.3 34.7L84.1 15.9C86.3 13.7 88 14.4 88 17.5Z"/><path fill="#64ACE8" d="M8 69C8 64.5 10.4 60.4 14.3 58.1L43.5 41.3C47.5 39 51 41 51 45.6V61C51 65.5 48.6 69.6 44.7 71.9L15.5 88.7C11.5 91 8 89 8 84.4Z"/></g><path fill="#17212B" d="M89.92 28.418Q87.368 28.418 86.498 28.186V34.856Q86.498 38.8 86.614 41.352Q86.73 43.498 87.31 44.455Q87.89 45.412 89.63 46.108L89.456 47.558Q87.194 47.384 84.236 47.384Q81.22 47.384 78.958 47.558L78.784 46.108Q80.35 45.47 80.959 44.484Q81.568 43.498 81.684 41.352Q81.858 39.438 81.858 34.856V19.428Q81.858 14.846 81.684 12.932Q81.568 10.786 80.959 9.8Q80.35 8.814 78.784 8.176L78.958 6.726Q81.22 6.9 84.236 6.9Q86.034 6.9 87.542 6.842Q89.108 6.784 91.37 6.784Q97.112 6.784 100.36 9.8Q103.666 12.816 103.666 17.108Q103.666 24.242 97.112 27.142Q102.274 36.712 106.914 42.57Q109.814 46.05 112.25 46.746V47.964Q111.148 48.428 109.292 48.428Q105.406 48.428 101.984 43.614Q97.402 37.408 93.11 28.186Q92.124 28.418 89.92 28.418ZM89.92 9.046Q88.006 9.046 87.397 9.597Q86.788 10.148 86.672 11.946Q86.498 13.744 86.498 17.92V26.04Q86.788 26.098 89.166 26.098Q93.806 26.098 96.271 23.894Q98.736 21.69 98.736 17.688Q98.736 13.628 96.474 11.337Q94.212 9.046 89.92 9.046ZM121.768 31.898V36.248Q121.768 39.612 121.884 42.048Q122 43.962 122.522 44.774Q123.044 45.586 124.552 46.224L124.378 47.558Q119.738 47.152 115.098 47.558L114.924 46.224Q116.49 45.586 116.954 44.832Q117.418 44.078 117.534 42.106Q117.708 40.308 117.708 36.248V34.972Q117.708 31.376 117.534 29.52Q117.418 27.78 116.867 27.142Q116.316 26.504 114.692 26.214V24.996Q118.462 23.14 120.84 20.936L122.058 21.4Q122 24.126 121.913 26.794Q121.826 29.462 121.797 30.593Q121.768 31.724 121.768 31.898ZM119.738 11.424Q118.346 11.424 117.418 10.496Q116.49 9.568 116.49 8.176Q116.49 6.784 117.418 5.856Q118.346 4.928 119.738 4.928Q121.13 4.928 122.058 5.856Q122.986 6.784 122.986 8.176Q122.986 9.568 122.058 10.496Q121.13 11.424 119.738 11.424ZM153.616 23.14 153.152 25.286H147.7Q149.614 27.432 149.614 30.97Q149.614 35.146 146.888 37.988Q144.162 40.714 140.334 40.714Q136.68 40.714 134.128 38.568Q131.924 40.25 131.924 42.628Q131.924 45.354 135.868 45.528L142.886 45.76Q146.888 45.876 149.063 48.022Q151.238 50.168 151.238 53.648Q151.238 57.708 147.526 60.55Q143.814 63.45 138.014 63.45Q133.316 63.45 130.735 61.594Q128.154 59.738 128.154 56.606Q128.154 52.72 132.794 49.472Q128.618 47.964 128.618 43.962Q128.618 40.192 132.62 37.118Q130.648 34.45 130.648 30.97Q130.648 26.968 133.432 24.068Q136.216 21.226 140.102 21.226Q141.9 21.226 143.872 21.806Q145.96 22.386 147.642 22.386Q150.774 22.386 153.152 22.154ZM148.048 54.634Q148.048 50.168 141.842 50.168Q137.086 50.168 134.766 49.994Q131.924 52.662 131.924 55.62Q131.924 57.708 133.722 58.955Q135.52 60.202 138.942 60.202Q143.408 60.202 145.728 58.636Q148.048 57.07 148.048 54.634ZM139.986 23.546Q137.724 23.546 136.419 25.344Q135.114 27.142 135.114 30.622Q135.114 34.392 136.477 36.393Q137.84 38.394 140.334 38.394Q145.206 38.394 145.206 31.26Q145.206 27.664 143.785 25.605Q142.364 23.546 139.986 23.546ZM162.554 14.846 162.496 26.272 162.554 26.33Q165.338 21.052 170.326 21.052Q174.734 21.052 176.938 24.648Q178.156 26.852 178.156 29.752V36.422Q178.156 39.612 178.272 42.048Q178.388 43.962 178.91 44.774Q179.432 45.586 180.94 46.224L180.766 47.558Q176.126 47.152 171.486 47.558L171.312 46.224Q172.82 45.586 173.313 44.774Q173.806 43.962 173.922 42.048Q174.096 40.192 174.096 36.422V30.274Q174.096 27.838 172.733 26.33Q171.37 24.822 169.05 24.822Q166.092 24.822 164.323 26.62Q162.554 28.418 162.554 31.26V36.422Q162.554 39.612 162.67 42.048Q162.786 43.962 163.308 44.774Q163.83 45.586 165.338 46.224L165.164 47.558Q160.524 47.152 155.884 47.558L155.71 46.224Q157.218 45.586 157.711 44.774Q158.204 43.962 158.32 42.048Q158.494 40.192 158.494 36.422V17.92Q158.494 14.324 158.32 12.526Q158.204 10.786 157.653 10.148Q157.102 9.51 155.478 9.22V7.944Q158.668 6.262 161.626 3.884L162.844 4.348Q162.554 9.858 162.554 14.846ZM184.31 24.474 184.136 23.256Q186.166 21.748 187.471 20.24Q188.776 18.732 190.168 16.354L191.618 16.702Q191.502 18.094 191.154 22.386Q194.518 22.328 197.244 22.154L197.708 23.14L197.244 25.286H191.038V38.916Q191.038 42.686 191.966 43.962Q192.72 44.89 194.17 44.89Q195.736 44.89 197.186 43.44L198.172 45.122Q197.65 46.456 196.229 47.384Q194.808 48.312 193.068 48.312Q190.284 48.312 188.602 46.282Q187.036 44.368 187.036 39.612V27.838Q187.036 26.098 186.543 25.46Q186.05 24.822 184.31 24.474ZM212.33 28.418Q209.778 28.418 208.908 28.186V34.856Q208.908 38.8 209.024 41.352Q209.14 43.498 209.72 44.455Q210.3 45.412 212.04 46.108L211.866 47.558Q209.604 47.384 206.646 47.384Q203.63 47.384 201.368 47.558L201.194 46.108Q202.76 45.47 203.369 44.484Q203.978 43.498 204.094 41.352Q204.268 39.438 204.268 34.856V19.428Q204.268 14.846 204.094 12.932Q203.978 10.786 203.369 9.8Q202.76 8.814 201.194 8.176L201.368 6.726Q203.63 6.9 206.646 6.9Q208.444 6.9 209.952 6.842Q211.518 6.784 213.78 6.784Q219.522 6.784 222.77 9.8Q226.076 12.816 226.076 17.108Q226.076 24.242 219.522 27.142Q224.684 36.712 229.324 42.57Q232.224 46.05 234.66 46.746V47.964Q233.558 48.428 231.702 48.428Q227.816 48.428 224.394 43.614Q219.812 37.408 215.52 28.186Q214.534 28.418 212.33 28.418ZM212.33 9.046Q210.416 9.046 209.807 9.597Q209.198 10.148 209.082 11.946Q208.908 13.744 208.908 17.92V26.04Q209.198 26.098 211.576 26.098Q216.216 26.098 218.681 23.894Q221.146 21.69 221.146 17.688Q221.146 13.628 218.884 11.337Q216.622 9.046 212.33 9.046ZM236.464 35.204Q236.464 29.172 240.118 25.112Q243.772 21.052 249.166 21.052Q253.342 21.052 256.126 23.836Q258.968 26.504 258.968 30.738Q258.968 31.492 258.852 32.072H240.988Q240.872 33 240.872 34.276Q240.872 38.684 243.192 41.526Q245.512 44.31 249.108 44.31Q251.892 44.31 253.777 43.237Q255.662 42.164 257.46 39.612L258.852 40.482Q257.402 44.136 254.734 46.282Q252.066 48.428 248.528 48.428Q243.192 48.428 239.828 44.542Q236.464 40.656 236.464 35.204ZM241.394 29.752H253.864Q253.806 26.968 252.153 25.315Q250.5 23.662 247.89 23.662Q245.396 23.662 243.656 25.344Q241.916 27.026 241.394 29.752ZM277.882 4.116Q280.492 4.116 282.29 5.421Q284.088 6.726 284.088 8.698Q284.088 9.742 283.479 10.409Q282.87 11.076 281.884 11.076Q280.202 11.076 278.868 8.814Q277.882 7.132 276.084 7.132Q270.574 7.132 270.574 18.036V22.386Q274.402 22.328 276.896 22.154L277.36 23.14L276.896 25.286H270.574V36.654Q270.574 38.916 270.69 42.048Q270.806 43.846 271.444 44.716Q272.082 45.586 273.938 46.224L273.764 47.558Q271.734 47.384 268.544 47.384Q265.934 47.384 263.904 47.558L263.73 46.224Q265.238 45.586 265.731 44.774Q266.224 43.962 266.34 42.048Q266.514 40.192 266.514 36.422V27.838Q266.514 26.098 266.021 25.46Q265.528 24.822 263.788 24.474L263.556 23.256Q265.238 22.676 265.818 21.284Q266.05 20.704 266.224 19.863Q266.398 19.022 266.601 17.833Q266.804 16.644 266.92 15.948Q269.646 4.116 277.882 4.116ZM278.932 35.204Q278.932 29.172 282.586 25.112Q286.24 21.052 291.634 21.052Q295.81 21.052 298.594 23.836Q301.436 26.504 301.436 30.738Q301.436 31.492 301.32 32.072H283.456Q283.34 33 283.34 34.276Q283.34 38.684 285.66 41.526Q287.98 44.31 291.576 44.31Q294.36 44.31 296.245 43.237Q298.13 42.164 299.928 39.612L301.32 40.482Q299.87 44.136 297.202 46.282Q294.534 48.428 290.996 48.428Q285.66 48.428 282.296 44.542Q278.932 40.656 278.932 35.204ZM283.862 29.752H296.332Q296.274 26.968 294.621 25.315Q292.968 23.662 290.358 23.662Q287.864 23.662 286.124 25.344Q284.384 27.026 283.862 29.752ZM321.916 25.982Q321.394 25.982 320.089 25.46Q318.784 24.938 318.32 24.938Q316.174 24.938 314.753 27.316Q313.332 29.694 313.332 33.696V36.422Q313.332 39.612 313.448 42.048Q313.564 43.962 314.231 44.832Q314.898 45.702 316.696 46.224L316.522 47.558Q314.55 47.384 311.302 47.384Q308.634 47.384 306.662 47.558L306.488 46.224Q307.996 45.586 308.489 44.774Q308.982 43.962 309.098 42.048Q309.272 40.192 309.272 36.422V34.972Q309.272 31.376 309.098 29.52Q308.982 27.78 308.431 27.142Q307.88 26.504 306.256 26.214V24.996Q310.026 23.14 312.404 20.936L313.622 21.4Q313.332 23.662 313.274 27.026L313.332 27.084Q314.492 24.242 316.348 22.647Q318.204 21.052 320.292 21.052Q321.974 21.052 322.989 21.864Q324.004 22.676 324.004 23.952Q324.004 25.982 321.916 25.982Z"/></g><path fill="#17212B" d="M91.61 237H124.1Q130.76 237 134.27 236.73Q134.54 243.21 134.54 249.87L131.93 250.05Q130.58 245.46 128.69 243.39Q126.98 241.5 123.56 240.96Q120.41 240.51 116.45 240.51Q113.3 240.51 112.445 241.275Q111.59 242.04 111.41 244.83Q111.14 247.62 111.14 254.1V280.38Q111.14 281.55 111.41 290.46Q111.59 293.97 112.625 295.365Q113.66 296.76 116.9 297.66L116.63 300.09Q113.12 299.82 107.63 299.82Q101.96 299.82 98.45 300.09L98.18 297.66Q101.42 296.76 102.455 295.365Q103.49 293.97 103.67 290.46Q103.94 281.55 103.94 280.38V254.1Q103.94 247.62 103.67 244.83Q103.49 242.04 102.635 241.275Q101.78 240.51 98.63 240.51Q94.76 240.51 91.61 240.96Q88.28 241.5 86.48 243.39Q84.5 245.37 83.15 250.05L80.54 249.87Q81.17 239.7 81.44 236.73Q84.95 237 91.61 237ZM150.11 249.33 150.02 267.06 150.11 267.15Q154.43 258.96 162.17 258.96Q169.01 258.96 172.43 264.54Q174.32 267.96 174.32 272.46V282.81Q174.32 287.76 174.5 291.54Q174.68 294.51 175.49 295.77Q176.3 297.03 178.64 298.02L178.37 300.09Q171.17 299.46 163.97 300.09L163.7 298.02Q166.04 297.03 166.805 295.77Q167.57 294.51 167.75 291.54Q168.02 288.66 168.02 282.81V273.27Q168.02 269.49 165.905 267.15Q163.79 264.81 160.19 264.81Q155.6 264.81 152.855 267.6Q150.11 270.39 150.11 274.8V282.81Q150.11 287.76 150.29 291.54Q150.47 294.51 151.28 295.77Q152.09 297.03 154.43 298.02L154.16 300.09Q146.96 299.46 139.76 300.09L139.49 298.02Q141.83 297.03 142.595 295.77Q143.36 294.51 143.54 291.54Q143.81 288.66 143.81 282.81V254.1Q143.81 248.52 143.54 245.73Q143.36 243.03 142.505 242.04Q141.65 241.05 139.13 240.6V238.62Q144.08 236.01 148.67 232.32L150.56 233.04Q150.11 241.59 150.11 249.33ZM185.66 280.92Q185.66 271.56 191.33 265.26Q197 258.96 205.37 258.96Q211.85 258.96 216.17 263.28Q220.58 267.42 220.58 273.99Q220.58 275.16 220.4 276.06H192.68Q192.5 277.5 192.5 279.48Q192.5 286.32 196.1 290.73Q199.7 295.05 205.28 295.05Q209.6 295.05 212.525 293.385Q215.45 291.72 218.24 287.76L220.4 289.11Q218.15 294.78 214.01 298.11Q209.87 301.44 204.38 301.44Q196.1 301.44 190.88 295.41Q185.66 289.38 185.66 280.92ZM193.31 272.46H212.66Q212.57 268.14 210.005 265.575Q207.44 263.01 203.39 263.01Q199.52 263.01 196.82 265.62Q194.12 268.23 193.31 272.46ZM275.48 266.61Q274.67 266.61 272.645 265.8Q270.62 264.99 269.9 264.99Q266.57 264.99 264.365 268.68Q262.16 272.37 262.16 278.58V282.81Q262.16 287.76 262.34 291.54Q262.52 294.51 263.555 295.86Q264.59 297.21 267.38 298.02L267.11 300.09Q264.05 299.82 259.01 299.82Q254.87 299.82 251.81 300.09L251.54 298.02Q253.88 297.03 254.645 295.77Q255.41 294.51 255.59 291.54Q255.86 288.66 255.86 282.81V280.56Q255.86 274.98 255.59 272.1Q255.41 269.4 254.555 268.41Q253.7 267.42 251.18 266.97V265.08Q257.03 262.2 260.72 258.78L262.61 259.5Q262.16 263.01 262.07 268.23L262.16 268.32Q263.96 263.91 266.84 261.435Q269.72 258.96 272.96 258.96Q275.57 258.96 277.145 260.22Q278.72 261.48 278.72 263.46Q278.72 266.61 275.48 266.61ZM293.39 275.79V282.54Q293.39 287.76 293.57 291.54Q293.75 294.51 294.56 295.77Q295.37 297.03 297.71 298.02L297.44 300.09Q290.24 299.46 283.04 300.09L282.77 298.02Q285.2 297.03 285.92 295.86Q286.64 294.69 286.82 291.63Q287.09 288.84 287.09 282.54V280.56Q287.09 274.98 286.82 272.1Q286.64 269.4 285.785 268.41Q284.93 267.42 282.41 266.97V265.08Q288.26 262.2 291.95 258.78L293.84 259.5Q293.75 263.73 293.615 267.87Q293.48 272.01 293.435 273.765Q293.39 275.52 293.39 275.79ZM290.24 244.02Q288.08 244.02 286.64 242.58Q285.2 241.14 285.2 238.98Q285.2 236.82 286.64 235.38Q288.08 233.94 290.24 233.94Q292.4 233.94 293.84 235.38Q295.28 236.82 295.28 238.98Q295.28 241.14 293.84 242.58Q292.4 244.02 290.24 244.02ZM343.43 262.2 342.71 265.53H334.25Q337.22 268.86 337.22 274.35Q337.22 280.83 332.99 285.24Q328.76 289.47 322.82 289.47Q317.15 289.47 313.19 286.14Q309.77 288.75 309.77 292.44Q309.77 296.67 315.89 296.94L326.78 297.3Q332.99 297.48 336.365 300.81Q339.74 304.14 339.74 309.54Q339.74 315.84 333.98 320.25Q328.22 324.75 319.22 324.75Q311.93 324.75 307.925 321.87Q303.92 318.99 303.92 314.13Q303.92 308.1 311.12 303.06Q304.64 300.72 304.64 294.51Q304.64 288.66 310.85 283.89Q307.79 279.75 307.79 274.35Q307.79 268.14 312.11 263.64Q316.43 259.23 322.46 259.23Q325.25 259.23 328.31 260.13Q331.55 261.03 334.16 261.03Q339.02 261.03 342.71 260.67ZM334.79 311.07Q334.79 304.14 325.16 304.14Q317.78 304.14 314.18 303.87Q309.77 308.01 309.77 312.6Q309.77 315.84 312.56 317.775Q315.35 319.71 320.66 319.71Q327.59 319.71 331.19 317.28Q334.79 314.85 334.79 311.07ZM322.28 262.83Q318.77 262.83 316.745 265.62Q314.72 268.41 314.72 273.81Q314.72 279.66 316.835 282.765Q318.95 285.87 322.82 285.87Q330.38 285.87 330.38 274.8Q330.38 269.22 328.175 266.025Q325.97 262.83 322.28 262.83ZM357.92 249.33 357.83 267.06 357.92 267.15Q362.24 258.96 369.98 258.96Q376.82 258.96 380.24 264.54Q382.13 267.96 382.13 272.46V282.81Q382.13 287.76 382.31 291.54Q382.49 294.51 383.3 295.77Q384.11 297.03 386.45 298.02L386.18 300.09Q378.98 299.46 371.78 300.09L371.51 298.02Q373.85 297.03 374.615 295.77Q375.38 294.51 375.56 291.54Q375.83 288.66 375.83 282.81V273.27Q375.83 269.49 373.715 267.15Q371.6 264.81 368 264.81Q363.41 264.81 360.665 267.6Q357.92 270.39 357.92 274.8V282.81Q357.92 287.76 358.1 291.54Q358.28 294.51 359.09 295.77Q359.9 297.03 362.24 298.02L361.97 300.09Q354.77 299.46 347.57 300.09L347.3 298.02Q349.64 297.03 350.405 295.77Q351.17 294.51 351.35 291.54Q351.62 288.66 351.62 282.81V254.1Q351.62 248.52 351.35 245.73Q351.17 243.03 350.315 242.04Q349.46 241.05 346.94 240.6V238.62Q351.89 236.01 356.48 232.32L358.37 233.04Q357.92 241.59 357.92 249.33ZM392.3 264.27 392.03 262.38Q395.18 260.04 397.205 257.7Q399.23 255.36 401.39 251.67L403.64 252.21Q403.46 254.37 402.92 261.03Q408.14 260.94 412.37 260.67L413.09 262.2L412.37 265.53H402.74V286.68Q402.74 292.53 404.18 294.51Q405.35 295.95 407.6 295.95Q410.03 295.95 412.28 293.7L413.81 296.31Q413 298.38 410.795 299.82Q408.59 301.26 405.89 301.26Q401.57 301.26 398.96 298.11Q396.53 295.14 396.53 287.76V269.49Q396.53 266.79 395.765 265.8Q395 264.81 392.3 264.27ZM465.83 266.61Q465.02 266.61 462.995 265.8Q460.97 264.99 460.25 264.99Q456.92 264.99 454.715 268.68Q452.51 272.37 452.51 278.58V282.81Q452.51 287.76 452.69 291.54Q452.87 294.51 453.905 295.86Q454.94 297.21 457.73 298.02L457.46 300.09Q454.4 299.82 449.36 299.82Q445.22 299.82 442.16 300.09L441.89 298.02Q444.23 297.03 444.995 295.77Q445.76 294.51 445.94 291.54Q446.21 288.66 446.21 282.81V280.56Q446.21 274.98 445.94 272.1Q445.76 269.4 444.905 268.41Q444.05 267.42 441.53 266.97V265.08Q447.38 262.2 451.07 258.78L452.96 259.5Q452.51 263.01 452.42 268.23L452.51 268.32Q454.31 263.91 457.19 261.435Q460.07 258.96 463.31 258.96Q465.92 258.96 467.495 260.22Q469.07 261.48 469.07 263.46Q469.07 266.61 465.83 266.61ZM471.77 280.92Q471.77 271.56 477.44 265.26Q483.11 258.96 491.48 258.96Q497.96 258.96 502.28 263.28Q506.69 267.42 506.69 273.99Q506.69 275.16 506.51 276.06H478.79Q478.61 277.5 478.61 279.48Q478.61 286.32 482.21 290.73Q485.81 295.05 491.39 295.05Q495.71 295.05 498.635 293.385Q501.56 291.72 504.35 287.76L506.51 289.11Q504.26 294.78 500.12 298.11Q495.98 301.44 490.49 301.44Q482.21 301.44 476.99 295.41Q471.77 289.38 471.77 280.92ZM479.42 272.46H498.77Q498.68 268.14 496.115 265.575Q493.55 263.01 489.5 263.01Q485.63 263.01 482.93 265.62Q480.23 268.23 479.42 272.46ZM536.66 232.68Q540.71 232.68 543.5 234.705Q546.29 236.73 546.29 239.79Q546.29 241.41 545.345 242.445Q544.4 243.48 542.87 243.48Q540.26 243.48 538.19 239.97Q536.66 237.36 533.87 237.36Q525.32 237.36 525.32 254.28V261.03Q531.26 260.94 535.13 260.67L535.85 262.2L535.13 265.53H525.32V283.17Q525.32 286.68 525.5 291.54Q525.68 294.33 526.67 295.68Q527.66 297.03 530.54 298.02L530.27 300.09Q527.12 299.82 522.17 299.82Q518.12 299.82 514.97 300.09L514.7 298.02Q517.04 297.03 517.805 295.77Q518.57 294.51 518.75 291.54Q519.02 288.66 519.02 282.81V269.49Q519.02 266.79 518.255 265.8Q517.49 264.81 514.79 264.27L514.43 262.38Q517.04 261.48 517.94 259.32Q518.3 258.42 518.57 257.115Q518.84 255.81 519.155 253.965Q519.47 252.12 519.65 251.04Q523.88 232.68 536.66 232.68ZM538.91 280.92Q538.91 271.56 544.58 265.26Q550.25 258.96 558.62 258.96Q565.1 258.96 569.42 263.28Q573.83 267.42 573.83 273.99Q573.83 275.16 573.65 276.06H545.93Q545.75 277.5 545.75 279.48Q545.75 286.32 549.35 290.73Q552.95 295.05 558.53 295.05Q562.85 295.05 565.775 293.385Q568.7 291.72 571.49 287.76L573.65 289.11Q571.4 294.78 567.26 298.11Q563.12 301.44 557.63 301.44Q549.35 301.44 544.13 295.41Q538.91 289.38 538.91 280.92ZM546.56 272.46H565.91Q565.82 268.14 563.255 265.575Q560.69 263.01 556.64 263.01Q552.77 263.01 550.07 265.62Q547.37 268.23 546.56 272.46ZM606.23 266.61Q605.42 266.61 603.395 265.8Q601.37 264.99 600.65 264.99Q597.32 264.99 595.115 268.68Q592.91 272.37 592.91 278.58V282.81Q592.91 287.76 593.09 291.54Q593.27 294.51 594.305 295.86Q595.34 297.21 598.13 298.02L597.86 300.09Q594.8 299.82 589.76 299.82Q585.62 299.82 582.56 300.09L582.29 298.02Q584.63 297.03 585.395 295.77Q586.16 294.51 586.34 291.54Q586.61 288.66 586.61 282.81V280.56Q586.61 274.98 586.34 272.1Q586.16 269.4 585.305 268.41Q584.45 267.42 581.93 266.97V265.08Q587.78 262.2 591.47 258.78L593.36 259.5Q592.91 263.01 592.82 268.23L592.91 268.32Q594.71 263.91 597.59 261.435Q600.47 258.96 603.71 258.96Q606.32 258.96 607.895 260.22Q609.47 261.48 609.47 263.46Q609.47 266.61 606.23 266.61ZM637.46 266.61Q636.65 266.61 634.625 265.8Q632.6 264.99 631.88 264.99Q628.55 264.99 626.345 268.68Q624.14 272.37 624.14 278.58V282.81Q624.14 287.76 624.32 291.54Q624.5 294.51 625.535 295.86Q626.57 297.21 629.36 298.02L629.09 300.09Q626.03 299.82 620.99 299.82Q616.85 299.82 613.79 300.09L613.52 298.02Q615.86 297.03 616.625 295.77Q617.39 294.51 617.57 291.54Q617.84 288.66 617.84 282.81V280.56Q617.84 274.98 617.57 272.1Q617.39 269.4 616.535 268.41Q615.68 267.42 613.16 266.97V265.08Q619.01 262.2 622.7 258.78L624.59 259.5Q624.14 263.01 624.05 268.23L624.14 268.32Q625.94 263.91 628.82 261.435Q631.7 258.96 634.94 258.96Q637.55 258.96 639.125 260.22Q640.7 261.48 640.7 263.46Q640.7 266.61 637.46 266.61ZM646.55 268.5 644.84 265.62Q646.28 262.92 649.475 261.03Q652.67 259.14 656.36 259.14Q663.11 259.14 666.35 263.82Q669.05 267.87 669.05 273.54V282.18Q669.05 286.59 669.23 290.37Q669.5 294.87 673.73 296.94L672.56 300.54Q664.46 300.18 663.2 293.52H663.02Q659.6 301.26 652.58 301.26Q648.35 301.26 645.785 298.875Q643.22 296.49 643.22 292.71Q643.22 287.4 648.89 283.71Q653.84 280.56 662.75 278.22V273.81Q662.75 269.76 660.86 267.33Q658.97 264.81 655.19 264.81Q651.32 264.81 646.55 268.5ZM662.75 286.32V281.37Q661.67 281.64 657.53 283.44Q649.61 286.77 649.61 291.18Q649.61 293.25 650.78 294.51Q651.95 295.77 654.11 295.77Q657.35 295.77 659.96 293.25Q662.75 290.73 662.75 286.32ZM691.37 249.33V282.54Q691.37 287.76 691.55 291.54Q691.73 294.51 692.54 295.77Q693.35 297.03 695.69 298.02L695.42 300.09Q688.22 299.46 681.02 300.09L680.75 298.02Q683.09 297.03 683.855 295.77Q684.62 294.51 684.8 291.54Q685.07 288.66 685.07 282.54V254.1Q685.07 248.52 684.8 245.73Q684.62 243.03 683.765 242.04Q682.91 241.05 680.39 240.6V238.62Q685.34 236.01 689.93 232.32L691.82 233.04Q691.73 237.27 691.595 241.41Q691.46 245.55 691.415 247.305Q691.37 249.06 691.37 249.33ZM710.99 301.08Q708.74 301.08 707.21 299.55Q705.68 298.02 705.68 295.77Q705.68 293.52 707.21 291.99Q708.74 290.46 710.99 290.46Q713.24 290.46 714.77 291.99Q716.3 293.52 716.3 295.77Q716.3 298.02 714.77 299.55Q713.24 301.08 710.99 301.08Z"/><path fill="#0A66C2" d="M101.6 389.46Q101.87 386.49 101.87 379.38V369.21L93.41 355.44L87.2 345.36Q85.04 342.03 83.6 340.545Q82.16 339.06 80.18 337.98L80.45 335.73Q85.76 336 88.91 336Q93.59 336 97.1 335.73L97.37 337.98Q93.77 339.33 93.77 341.22Q93.77 343.2 101.33 355.44L107 364.62L112.31 355.44Q118.88 344.28 118.88 341.67Q118.88 339.24 115.46 337.98L115.73 335.73Q119.24 336 123.38 336Q126.98 336 130.04 335.73L130.31 337.98Q128.51 338.97 127.16 340.5Q125.81 342.03 123.47 345.36L117.08 355.44L109.07 369.12V379.38Q109.07 384.96 109.34 389.46Q109.52 392.88 110.42 394.32Q111.32 395.76 113.93 396.84L113.66 399.09Q110.15 398.82 105.56 398.82Q100.88 398.82 97.37 399.09L97.1 396.84Q99.53 395.85 100.43 394.32Q101.33 392.79 101.6 389.46ZM133.73 379.2Q133.73 370.56 139.58 364.26Q145.34 357.96 153.71 357.96Q162.35 357.96 168.02 364.08Q173.78 370.11 173.78 379.2Q173.78 388.11 168.02 394.23Q162.35 400.44 154.16 400.44Q145.34 400.44 139.49 394.32Q133.73 388.29 133.73 379.2ZM153.44 362.1Q147.95 362.1 144.53 366.42Q141.11 370.74 141.11 378.39Q141.11 386.58 144.755 391.35Q148.4 396.12 154.43 396.12Q159.83 396.12 163.115 391.755Q166.4 387.39 166.4 379.74Q166.4 371.91 162.71 366.96Q159.11 362.1 153.44 362.1ZM215.18 375.87V379.74Q215.18 384.96 215.45 387.84Q215.63 390.54 216.485 391.53Q217.34 392.52 219.86 392.97V394.86Q215.63 396.75 211.4 400.44L209.51 399.99L209.24 391.71L209.15 391.62Q207.44 395.58 204.155 398.01Q200.87 400.44 197 400.44Q190.07 400.44 186.83 395.13Q185.03 391.98 185.03 386.94V377.13Q185.03 371.46 184.76 368.67Q184.49 365.97 183.545 364.53Q182.6 363.09 180.44 362.1L180.71 360.12Q187.01 360.03 191.96 359.67Q191.33 372.99 191.33 375.87V386.13Q191.33 390.27 193.22 392.43Q195.11 394.59 198.44 394.59Q203.21 394.59 206.045 391.485Q208.88 388.38 208.88 383.43V377.13Q208.88 371.46 208.61 368.67Q208.43 365.97 207.485 364.575Q206.54 363.18 204.29 362.1L204.56 360.12Q210.86 360.03 215.81 359.67Q215.18 372.99 215.18 375.87ZM252.53 365.61Q251.72 365.61 249.695 364.8Q247.67 363.99 246.95 363.99Q243.62 363.99 241.415 367.68Q239.21 371.37 239.21 377.58V381.81Q239.21 386.76 239.39 390.54Q239.57 393.51 240.605 394.86Q241.64 396.21 244.43 397.02L244.16 399.09Q241.1 398.82 236.06 398.82Q231.92 398.82 228.86 399.09L228.59 397.02Q230.93 396.03 231.695 394.77Q232.46 393.51 232.64 390.54Q232.91 387.66 232.91 381.81V379.56Q232.91 373.98 232.64 371.1Q232.46 368.4 231.605 367.41Q230.75 366.42 228.23 365.97V364.08Q234.08 361.2 237.77 357.78L239.66 358.5Q239.21 362.01 239.12 367.23L239.21 367.32Q241.01 362.91 243.89 360.435Q246.77 357.96 250.01 357.96Q252.62 357.96 254.195 359.22Q255.77 360.48 255.77 362.46Q255.77 365.61 252.53 365.61ZM315.71 376.23 320.48 390 325.79 376.32Q328.58 369.3 328.58 366.87Q328.58 363.72 325.43 362.1L325.79 360.03Q328.31 360.3 331.55 360.3Q335.15 360.3 337.76 360.03L338.03 362.1Q336.05 363.72 333.71 368.58Q331.73 372.72 330.2 376.41L320.21 400.62H317.69L307.97 373.71L296.9 400.62H294.38L285.65 376.41L282.14 367.32Q281.15 365.07 280.385 364.125Q279.62 363.18 278 362.1L278.36 360.03Q280.97 360.3 285.65 360.3Q289.25 360.3 291.86 360.03L292.13 362.1Q289.43 363.36 289.43 365.7Q289.43 367.68 292.4 376.23L297.17 390L302.57 376.32Q305.09 369.84 305.09 367.14Q305.09 364.44 301.31 362.1L301.67 360.03Q304.19 360.3 308.96 360.3Q312.65 360.3 315.17 360.03L315.44 362.1Q312.74 363.36 312.74 365.7Q312.74 367.59 315.71 376.23ZM344.69 367.5 342.98 364.62Q344.42 361.92 347.615 360.03Q350.81 358.14 354.5 358.14Q361.25 358.14 364.49 362.82Q367.19 366.87 367.19 372.54V381.18Q367.19 385.59 367.37 389.37Q367.64 393.87 371.87 395.94L370.7 399.54Q362.6 399.18 361.34 392.52H361.16Q357.74 400.26 350.72 400.26Q346.49 400.26 343.925 397.875Q341.36 395.49 341.36 391.71Q341.36 386.4 347.03 382.71Q351.98 379.56 360.89 377.22V372.81Q360.89 368.76 359 366.33Q357.11 363.81 353.33 363.81Q349.46 363.81 344.69 367.5ZM360.89 385.32V380.37Q359.81 380.64 355.67 382.44Q347.75 385.77 347.75 390.18Q347.75 392.25 348.92 393.51Q350.09 394.77 352.25 394.77Q355.49 394.77 358.1 392.25Q360.89 389.73 360.89 385.32ZM389.78 376.23 395.36 390.27 401.3 376.32Q404.09 369.93 404.09 366.87Q404.09 363.9 400.94 362.1L401.3 360.03Q403.82 360.3 407.42 360.3Q410.66 360.3 413.27 360.03L413.54 362.1Q411.56 363.9 409.22 368.58L405.71 376.41L389.78 412.41Q387.26 418.17 384.56 420.96Q381.68 423.84 377.72 423.84Q375.92 423.84 374.705 422.76Q373.49 421.68 373.49 420.06Q373.49 418.44 374.435 417.405Q375.38 416.37 376.91 416.37Q377.54 416.37 378.935 416.595Q380.33 416.82 380.87 416.82Q383.48 416.82 385.46 412.5L391.94 398.46L383.03 376.41L379.43 367.32Q378.44 365.07 377.675 364.125Q376.91 363.18 375.29 362.1L375.65 360.03Q379.52 360.3 382.94 360.3Q385.28 360.3 389.15 360.03L389.42 362.1Q386.72 363.36 386.72 365.7Q386.72 368.67 389.78 376.23ZM451.43 374.79V381.54Q451.43 386.76 451.61 390.54Q451.79 393.51 452.6 394.77Q453.41 396.03 455.75 397.02L455.48 399.09Q448.28 398.46 441.08 399.09L440.81 397.02Q443.24 396.03 443.96 394.86Q444.68 393.69 444.86 390.63Q445.13 387.84 445.13 381.54V379.56Q445.13 373.98 444.86 371.1Q444.68 368.4 443.825 367.41Q442.97 366.42 440.45 365.97V364.08Q446.3 361.2 449.99 357.78L451.88 358.5Q451.79 362.73 451.655 366.87Q451.52 371.01 451.475 372.765Q451.43 374.52 451.43 374.79ZM448.28 343.02Q446.12 343.02 444.68 341.58Q443.24 340.14 443.24 337.98Q443.24 335.82 444.68 334.38Q446.12 332.94 448.28 332.94Q450.44 332.94 451.88 334.38Q453.32 335.82 453.32 337.98Q453.32 340.14 451.88 341.58Q450.44 343.02 448.28 343.02ZM499.22 371.46V381.81Q499.22 386.76 499.4 390.54Q499.58 393.51 500.39 394.77Q501.2 396.03 503.54 397.02L503.27 399.09Q496.07 398.46 488.87 399.09L488.6 397.02Q490.94 396.03 491.705 394.77Q492.47 393.51 492.65 390.54Q492.92 387.66 492.92 381.81V372.27Q492.92 368.49 490.805 366.15Q488.69 363.81 485.09 363.81Q480.5 363.81 477.755 366.6Q475.01 369.39 475.01 373.8V381.81Q475.01 386.76 475.19 390.54Q475.37 393.51 476.18 394.77Q476.99 396.03 479.33 397.02L479.06 399.09Q471.86 398.46 464.66 399.09L464.39 397.02Q466.73 396.03 467.495 394.77Q468.26 393.51 468.44 390.54Q468.71 387.66 468.71 381.81V379.56Q468.71 373.98 468.44 371.1Q468.26 368.4 467.405 367.41Q466.55 366.42 464.03 365.97V364.08Q469.88 361.2 473.57 357.78L475.46 358.5Q475.1 363 474.92 366.06L475.01 366.15Q479.33 357.96 487.07 357.96Q493.91 357.96 497.33 363.54Q499.22 366.96 499.22 371.46ZM518.57 400.08Q516.32 400.08 514.79 398.55Q513.26 397.02 513.26 394.77Q513.26 392.52 514.79 390.99Q516.32 389.46 518.57 389.46Q520.82 389.46 522.35 390.99Q523.88 392.52 523.88 394.77Q523.88 397.02 522.35 398.55Q520.82 400.08 518.57 400.08Z"/><path fill="#17212B" d="M83.54 535V519.16H89.942Q90.173 519.16 90.514 519.177Q90.855 519.193 91.163 519.248Q92.483 519.457 93.369 520.15Q94.254 520.843 94.694 521.899Q95.134 522.955 95.134 524.231Q95.134 525.518 94.694 526.574Q94.254 527.63 93.369 528.323Q92.483 529.016 91.163 529.225Q90.855 529.269 90.508 529.291Q90.162 529.313 89.942 529.313H85.839V535ZM85.839 527.135H89.854Q90.074 527.135 90.344 527.113Q90.613 527.091 90.855 527.036Q91.559 526.871 91.988 526.426Q92.417 525.98 92.604 525.397Q92.791 524.814 92.791 524.231Q92.791 523.648 92.604 523.071Q92.417 522.493 91.988 522.048Q91.559 521.602 90.855 521.437Q90.613 521.371 90.344 521.349Q90.074 521.327 89.854 521.327H85.839ZM97.134 535V523.12H99.18V526.002L98.894 525.628Q99.114 525.056 99.466 524.578Q99.818 524.099 100.28 523.791Q100.731 523.461 101.286 523.279Q101.842 523.098 102.425 523.059Q103.008 523.021 103.547 523.12V525.276Q102.964 525.122 102.254 525.188Q101.545 525.254 100.951 525.639Q100.39 526.002 100.065 526.519Q99.741 527.036 99.598 527.668Q99.455 528.301 99.455 529.005V535ZM110.596 535.33Q108.814 535.33 107.505 534.527Q106.196 533.724 105.486 532.311Q104.777 530.897 104.777 529.049Q104.777 527.19 105.503 525.777Q106.229 524.363 107.538 523.577Q108.847 522.79 110.596 522.79Q112.378 522.79 113.687 523.593Q114.996 524.396 115.711 525.804Q116.426 527.212 116.426 529.049Q116.426 530.908 115.705 532.322Q114.985 533.735 113.676 534.533Q112.367 535.33 110.596 535.33ZM110.596 533.163Q112.301 533.163 113.142 532.014Q113.984 530.864 113.984 529.049Q113.984 527.19 113.131 526.073Q112.279 524.957 110.596 524.957Q109.441 524.957 108.693 525.479Q107.945 526.002 107.582 526.92Q107.219 527.839 107.219 529.049Q107.219 530.919 108.077 532.041Q108.935 533.163 110.596 533.163ZM119.735 535V522.702Q119.735 522.251 119.768 521.739Q119.801 521.228 119.96 520.727Q120.12 520.227 120.494 519.809Q120.945 519.314 121.484 519.105Q122.023 518.896 122.556 518.863Q123.09 518.83 123.541 518.83H125.037V520.722H123.651Q122.837 520.722 122.435 521.123Q122.034 521.525 122.034 522.262V535ZM117.766 524.968V523.12H125.037V524.968ZM131.866 535.33Q130.095 535.33 128.758 534.554Q127.422 533.779 126.679 532.388Q125.937 530.996 125.937 529.159Q125.937 527.212 126.668 525.782Q127.4 524.352 128.709 523.571Q130.018 522.79 131.756 522.79Q133.571 522.79 134.847 523.631Q136.123 524.473 136.755 526.024Q137.388 527.575 137.256 529.709H134.957V528.873Q134.935 526.805 134.171 525.815Q133.406 524.825 131.844 524.825Q130.117 524.825 129.248 525.914Q128.379 527.003 128.379 529.06Q128.379 531.018 129.248 532.091Q130.117 533.163 131.756 533.163Q132.834 533.163 133.62 532.673Q134.407 532.184 134.847 531.271L137.102 531.986Q136.409 533.581 135.001 534.456Q133.593 535.33 131.866 535.33ZM127.631 529.709V527.916H136.112V529.709ZM144.063 535.319Q141.896 535.319 140.532 534.362Q139.168 533.405 138.86 531.667L141.214 531.304Q141.434 532.228 142.231 532.761Q143.029 533.295 144.217 533.295Q145.295 533.295 145.905 532.855Q146.516 532.415 146.516 531.645Q146.516 531.194 146.301 530.913Q146.087 530.633 145.405 530.38Q144.723 530.127 143.326 529.753Q141.797 529.357 140.9 528.9Q140.004 528.444 139.624 527.833Q139.245 527.223 139.245 526.354Q139.245 525.276 139.817 524.473Q140.389 523.67 141.428 523.23Q142.468 522.79 143.865 522.79Q145.229 522.79 146.296 523.219Q147.363 523.648 148.023 524.435Q148.683 525.221 148.815 526.277L146.461 526.706Q146.34 525.848 145.658 525.353Q144.976 524.858 143.887 524.814Q142.842 524.77 142.193 525.16Q141.544 525.551 141.544 526.233Q141.544 526.629 141.791 526.904Q142.039 527.179 142.754 527.432Q143.469 527.685 144.866 528.037Q146.362 528.422 147.242 528.889Q148.122 529.357 148.501 530Q148.881 530.644 148.881 531.557Q148.881 533.317 147.599 534.318Q146.318 535.319 144.063 535.319ZM155.655 535.319Q153.488 535.319 152.124 534.362Q150.76 533.405 150.452 531.667L152.806 531.304Q153.026 532.228 153.824 532.761Q154.621 533.295 155.809 533.295Q156.887 533.295 157.498 532.855Q158.108 532.415 158.108 531.645Q158.108 531.194 157.894 530.913Q157.679 530.633 156.997 530.38Q156.315 530.127 154.918 529.753Q153.389 529.357 152.493 528.9Q151.596 528.444 151.216 527.833Q150.837 527.223 150.837 526.354Q150.837 525.276 151.409 524.473Q151.981 523.67 153.02 523.23Q154.06 522.79 155.457 522.79Q156.821 522.79 157.888 523.219Q158.955 523.648 159.615 524.435Q160.275 525.221 160.407 526.277L158.053 526.706Q157.932 525.848 157.25 525.353Q156.568 524.858 155.479 524.814Q154.434 524.77 153.785 525.16Q153.136 525.551 153.136 526.233Q153.136 526.629 153.383 526.904Q153.631 527.179 154.346 527.432Q155.061 527.685 156.458 528.037Q157.954 528.422 158.834 528.889Q159.714 529.357 160.094 530Q160.473 530.644 160.473 531.557Q160.473 533.317 159.192 534.318Q157.91 535.319 155.655 535.319ZM162.924 521.173V518.94H165.223V521.173ZM162.924 535V523.12H165.223V535ZM173.482 535.33Q171.7 535.33 170.391 534.527Q169.082 533.724 168.373 532.311Q167.663 530.897 167.663 529.049Q167.663 527.19 168.389 525.777Q169.115 524.363 170.424 523.577Q171.733 522.79 173.482 522.79Q175.264 522.79 176.573 523.593Q177.882 524.396 178.597 525.804Q179.312 527.212 179.312 529.049Q179.312 530.908 178.591 532.322Q177.871 533.735 176.562 534.533Q175.253 535.33 173.482 535.33ZM173.482 533.163Q175.187 533.163 176.029 532.014Q176.87 530.864 176.87 529.049Q176.87 527.19 176.018 526.073Q175.165 524.957 173.482 524.957Q172.327 524.957 171.579 525.479Q170.831 526.002 170.468 526.92Q170.105 527.839 170.105 529.049Q170.105 530.919 170.963 532.041Q171.821 533.163 173.482 533.163ZM189.87 535V529.159Q189.87 528.466 189.755 527.735Q189.639 527.003 189.315 526.376Q188.99 525.749 188.401 525.364Q187.813 524.979 186.867 524.979Q186.251 524.979 185.701 525.183Q185.151 525.386 184.739 525.837Q184.326 526.288 184.09 527.025Q183.853 527.762 183.853 528.818L182.423 528.279Q182.423 526.662 183.028 525.425Q183.633 524.187 184.766 523.494Q185.899 522.801 187.505 522.801Q188.737 522.801 189.573 523.197Q190.409 523.593 190.932 524.236Q191.454 524.88 191.729 525.639Q192.004 526.398 192.103 527.124Q192.202 527.85 192.202 528.4V535ZM181.521 535V523.12H183.578V526.552H183.853V535ZM198.217 535.33Q196.897 535.33 196.006 534.841Q195.115 534.351 194.659 533.543Q194.202 532.734 194.202 531.766Q194.202 530.864 194.521 530.182Q194.84 529.5 195.467 529.022Q196.094 528.543 197.007 528.246Q197.799 528.015 198.8 527.839Q199.801 527.663 200.907 527.509Q202.012 527.355 203.101 527.201L202.265 527.663Q202.287 526.266 201.677 525.59Q201.066 524.913 199.581 524.913Q198.646 524.913 197.865 525.348Q197.084 525.782 196.776 526.783L194.631 526.123Q195.071 524.594 196.309 523.692Q197.546 522.79 199.603 522.79Q201.198 522.79 202.381 523.334Q203.563 523.879 204.113 525.056Q204.399 525.639 204.465 526.288Q204.531 526.937 204.531 527.685V535H202.496V532.283L202.892 532.635Q202.155 533.999 201.017 534.665Q199.878 535.33 198.217 535.33ZM198.624 533.449Q199.603 533.449 200.307 533.102Q201.011 532.756 201.44 532.217Q201.869 531.678 202.001 531.095Q202.188 530.567 202.216 529.907Q202.243 529.247 202.243 528.851L202.991 529.126Q201.902 529.291 201.011 529.423Q200.12 529.555 199.4 529.681Q198.679 529.808 198.118 529.984Q197.645 530.149 197.277 530.38Q196.908 530.611 196.694 530.941Q196.479 531.271 196.479 531.744Q196.479 532.206 196.71 532.596Q196.941 532.987 197.414 533.218Q197.887 533.449 198.624 533.449ZM207.411 535V518.83H209.71V535ZM217.23 521.173V518.94H219.529V521.173ZM217.23 535V523.12H219.529V535ZM230.967 535V529.159Q230.967 528.466 230.852 527.735Q230.736 527.003 230.412 526.376Q230.087 525.749 229.499 525.364Q228.91 524.979 227.964 524.979Q227.348 524.979 226.798 525.183Q226.248 525.386 225.836 525.837Q225.423 526.288 225.187 527.025Q224.95 527.762 224.95 528.818L223.52 528.279Q223.52 526.662 224.125 525.425Q224.73 524.187 225.863 523.494Q226.996 522.801 228.602 522.801Q229.834 522.801 230.67 523.197Q231.506 523.593 232.029 524.236Q232.551 524.88 232.826 525.639Q233.101 526.398 233.2 527.124Q233.299 527.85 233.299 528.4V535ZM222.618 535V523.12H224.675V526.552H224.95V535ZM242.757 535Q241.635 535.22 240.557 535.187Q239.479 535.154 238.632 534.769Q237.785 534.384 237.356 533.559Q236.971 532.822 236.944 532.058Q236.916 531.293 236.916 530.325V519.82H239.226V530.215Q239.226 530.93 239.243 531.458Q239.259 531.986 239.468 532.349Q239.864 533.031 240.728 533.124Q241.591 533.218 242.757 533.053ZM234.639 524.968V523.12H242.757V524.968ZM245.054 535V523.12H247.1V526.002L246.814 525.628Q247.034 525.056 247.386 524.578Q247.738 524.099 248.2 523.791Q248.651 523.461 249.207 523.279Q249.762 523.098 250.345 523.059Q250.928 523.021 251.467 523.12V525.276Q250.884 525.122 250.175 525.188Q249.465 525.254 248.871 525.639Q248.31 526.002 247.986 526.519Q247.661 527.036 247.518 527.668Q247.375 528.301 247.375 529.005V535ZM258.516 535.33Q256.734 535.33 255.425 534.527Q254.116 533.724 253.407 532.311Q252.697 530.897 252.697 529.049Q252.697 527.19 253.423 525.777Q254.149 524.363 255.458 523.577Q256.767 522.79 258.516 522.79Q260.298 522.79 261.607 523.593Q262.916 524.396 263.631 525.804Q264.346 527.212 264.346 529.049Q264.346 530.908 263.626 532.322Q262.905 533.735 261.596 534.533Q260.287 535.33 258.516 535.33ZM258.516 533.163Q260.221 533.163 261.063 532.014Q261.904 530.864 261.904 529.049Q261.904 527.19 261.052 526.073Q260.199 524.957 258.516 524.957Q257.361 524.957 256.613 525.479Q255.865 526.002 255.502 526.92Q255.139 527.839 255.139 529.049Q255.139 530.919 255.997 532.041Q256.855 533.163 258.516 533.163ZM271.285 535.33Q269.624 535.33 268.42 534.505Q267.215 533.68 266.561 532.255Q265.906 530.831 265.906 529.049Q265.906 527.256 266.566 525.842Q267.226 524.429 268.442 523.61Q269.657 522.79 271.329 522.79Q273.012 522.79 274.162 523.61Q275.311 524.429 275.899 525.848Q276.488 527.267 276.488 529.049Q276.488 530.831 275.894 532.25Q275.3 533.669 274.145 534.5Q272.99 535.33 271.285 535.33ZM271.604 533.251Q272.737 533.251 273.452 532.712Q274.167 532.173 274.497 531.227Q274.827 530.281 274.827 529.049Q274.827 527.817 274.491 526.871Q274.156 525.925 273.457 525.397Q272.759 524.869 271.681 524.869Q270.537 524.869 269.8 525.43Q269.063 525.991 268.706 526.937Q268.348 527.883 268.348 529.049Q268.348 530.226 268.706 531.178Q269.063 532.129 269.784 532.69Q270.504 533.251 271.604 533.251ZM274.827 535V526.453H274.563V519.16H276.873V535ZM284.23 535.319Q282.998 535.319 282.162 534.923Q281.326 534.527 280.803 533.884Q280.281 533.24 280.006 532.481Q279.731 531.722 279.632 530.996Q279.533 530.27 279.533 529.72V523.12H281.865V528.961Q281.865 529.654 281.981 530.385Q282.096 531.117 282.421 531.744Q282.745 532.371 283.334 532.756Q283.922 533.141 284.868 533.141Q285.484 533.141 286.034 532.938Q286.584 532.734 286.997 532.283Q287.409 531.832 287.646 531.095Q287.882 530.358 287.882 529.302L289.312 529.841Q289.312 531.458 288.707 532.696Q288.102 533.933 286.969 534.626Q285.836 535.319 284.23 535.319ZM288.157 535V531.568H287.882V523.12H290.203V535ZM298.165 535.33Q296.339 535.33 295.063 534.516Q293.787 533.702 293.111 532.283Q292.434 530.864 292.423 529.06Q292.434 527.223 293.127 525.809Q293.82 524.396 295.107 523.593Q296.394 522.79 298.198 522.79Q300.145 522.79 301.525 523.758Q302.906 524.726 303.346 526.409L301.058 527.069Q300.717 526.068 299.942 525.513Q299.166 524.957 298.165 524.957Q297.032 524.957 296.306 525.49Q295.58 526.024 295.228 526.948Q294.876 527.872 294.865 529.06Q294.876 530.897 295.707 532.03Q296.537 533.163 298.165 533.163Q299.276 533.163 299.964 532.651Q300.651 532.14 301.014 531.183L303.346 531.733Q302.763 533.471 301.421 534.4Q300.079 535.33 298.165 535.33ZM312.188 535Q311.066 535.22 309.988 535.187Q308.91 535.154 308.063 534.769Q307.216 534.384 306.787 533.559Q306.402 532.822 306.375 532.058Q306.347 531.293 306.347 530.325V519.82H308.657V530.215Q308.657 530.93 308.673 531.458Q308.69 531.986 308.899 532.349Q309.295 533.031 310.159 533.124Q311.022 533.218 312.188 533.053ZM304.07 524.968V523.12H312.188V524.968ZM314.705 521.173V518.94H317.004V521.173ZM314.705 535V523.12H317.004V535ZM325.263 535.33Q323.481 535.33 322.172 534.527Q320.863 533.724 320.154 532.311Q319.444 530.897 319.444 529.049Q319.444 527.19 320.17 525.777Q320.896 524.363 322.205 523.577Q323.514 522.79 325.263 522.79Q327.045 522.79 328.354 523.593Q329.663 524.396 330.378 525.804Q331.093 527.212 331.093 529.049Q331.093 530.908 330.373 532.322Q329.652 533.735 328.343 534.533Q327.034 535.33 325.263 535.33ZM325.263 533.163Q326.968 533.163 327.81 532.014Q328.651 530.864 328.651 529.049Q328.651 527.19 327.799 526.073Q326.946 524.957 325.263 524.957Q324.108 524.957 323.36 525.479Q322.612 526.002 322.249 526.92Q321.886 527.839 321.886 529.049Q321.886 530.919 322.744 532.041Q323.602 533.163 325.263 533.163ZM341.651 535V529.159Q341.651 528.466 341.536 527.735Q341.42 527.003 341.096 526.376Q340.771 525.749 340.183 525.364Q339.594 524.979 338.648 524.979Q338.032 524.979 337.482 525.183Q336.932 525.386 336.52 525.837Q336.107 526.288 335.871 527.025Q335.634 527.762 335.634 528.818L334.204 528.279Q334.204 526.662 334.809 525.425Q335.414 524.187 336.547 523.494Q337.68 522.801 339.286 522.801Q340.518 522.801 341.354 523.197Q342.19 523.593 342.713 524.236Q343.235 524.88 343.51 525.639Q343.785 526.398 343.884 527.124Q343.983 527.85 343.983 528.4V535ZM333.302 535V523.12H335.359V526.552H335.634V535ZM351.186 535.319Q349.019 535.319 347.655 534.362Q346.291 533.405 345.983 531.667L348.337 531.304Q348.557 532.228 349.355 532.761Q350.152 533.295 351.34 533.295Q352.418 533.295 353.029 532.855Q353.639 532.415 353.639 531.645Q353.639 531.194 353.425 530.913Q353.21 530.633 352.528 530.38Q351.846 530.127 350.449 529.753Q348.92 529.357 348.024 528.9Q347.127 528.444 346.748 527.833Q346.368 527.223 346.368 526.354Q346.368 525.276 346.94 524.473Q347.512 523.67 348.552 523.23Q349.591 522.79 350.988 522.79Q352.352 522.79 353.419 523.219Q354.486 523.648 355.146 524.435Q355.806 525.221 355.938 526.277L353.584 526.706Q353.463 525.848 352.781 525.353Q352.099 524.858 351.01 524.814Q349.965 524.77 349.316 525.16Q348.667 525.551 348.667 526.233Q348.667 526.629 348.915 526.904Q349.162 527.179 349.877 527.432Q350.592 527.685 351.989 528.037Q353.485 528.422 354.365 528.889Q355.245 529.357 355.625 530Q356.004 530.644 356.004 531.557Q356.004 533.317 354.723 534.318Q353.441 535.319 351.186 535.319ZM358.015 537.629 358.158 536.606Q358.631 536.639 358.895 536.43Q359.159 536.221 359.247 535.847Q359.335 535.473 359.28 535H358.015V532.349H360.446V535.22Q360.446 536.518 359.825 537.178Q359.203 537.838 358.015 537.629ZM376.964 535V529.159Q376.964 528.466 376.849 527.735Q376.733 527.003 376.409 526.376Q376.084 525.749 375.495 525.364Q374.907 524.979 373.961 524.979Q373.345 524.979 372.795 525.183Q372.245 525.386 371.832 525.837Q371.42 526.288 371.183 527.025Q370.947 527.762 370.947 528.818L369.517 528.279Q369.517 526.662 370.122 525.425Q370.727 524.187 371.86 523.494Q372.993 522.801 374.599 522.801Q375.831 522.801 376.667 523.197Q377.503 523.593 378.025 524.236Q378.548 524.88 378.823 525.639Q379.098 526.398 379.197 527.124Q379.296 527.85 379.296 528.4V535ZM368.615 535V519.16H370.672V527.707H370.947V535ZM385.311 535.33Q383.991 535.33 383.1 534.841Q382.209 534.351 381.752 533.543Q381.296 532.734 381.296 531.766Q381.296 530.864 381.615 530.182Q381.934 529.5 382.561 529.022Q383.188 528.543 384.101 528.246Q384.893 528.015 385.894 527.839Q386.895 527.663 388 527.509Q389.106 527.355 390.195 527.201L389.359 527.663Q389.381 526.266 388.77 525.59Q388.16 524.913 386.675 524.913Q385.74 524.913 384.959 525.348Q384.178 525.782 383.87 526.783L381.725 526.123Q382.165 524.594 383.403 523.692Q384.64 522.79 386.697 522.79Q388.292 522.79 389.474 523.334Q390.657 523.879 391.207 525.056Q391.493 525.639 391.559 526.288Q391.625 526.937 391.625 527.685V535H389.59V532.283L389.986 532.635Q389.249 533.999 388.111 534.665Q386.972 535.33 385.311 535.33ZM385.718 533.449Q386.697 533.449 387.401 533.102Q388.105 532.756 388.534 532.217Q388.963 531.678 389.095 531.095Q389.282 530.567 389.309 529.907Q389.337 529.247 389.337 528.851L390.085 529.126Q388.996 529.291 388.105 529.423Q387.214 529.555 386.494 529.681Q385.773 529.808 385.212 529.984Q384.739 530.149 384.37 530.38Q384.002 530.611 383.788 530.941Q383.573 531.271 383.573 531.744Q383.573 532.206 383.804 532.596Q384.035 532.987 384.508 533.218Q384.981 533.449 385.718 533.449ZM402.623 535V529.159Q402.623 528.466 402.507 527.735Q402.392 527.003 402.067 526.376Q401.743 525.749 401.154 525.364Q400.566 524.979 399.62 524.979Q399.004 524.979 398.454 525.183Q397.904 525.386 397.491 525.837Q397.079 526.288 396.842 527.025Q396.606 527.762 396.606 528.818L395.176 528.279Q395.176 526.662 395.781 525.425Q396.386 524.187 397.519 523.494Q398.652 522.801 400.258 522.801Q401.49 522.801 402.326 523.197Q403.162 523.593 403.684 524.236Q404.207 524.88 404.482 525.639Q404.757 526.398 404.856 527.124Q404.955 527.85 404.955 528.4V535ZM394.274 535V523.12H396.331V526.552H396.606V535ZM412.334 535.33Q410.673 535.33 409.469 534.505Q408.264 533.68 407.61 532.255Q406.955 530.831 406.955 529.049Q406.955 527.256 407.615 525.842Q408.275 524.429 409.49 523.61Q410.706 522.79 412.378 522.79Q414.061 522.79 415.211 523.61Q416.36 524.429 416.948 525.848Q417.537 527.267 417.537 529.049Q417.537 530.831 416.943 532.25Q416.349 533.669 415.194 534.5Q414.039 535.33 412.334 535.33ZM412.653 533.251Q413.786 533.251 414.501 532.712Q415.216 532.173 415.546 531.227Q415.876 530.281 415.876 529.049Q415.876 527.817 415.54 526.871Q415.205 525.925 414.506 525.397Q413.808 524.869 412.73 524.869Q411.586 524.869 410.849 525.43Q410.112 525.991 409.755 526.937Q409.397 527.883 409.397 529.049Q409.397 530.226 409.755 531.178Q410.112 532.129 410.832 532.69Q411.553 533.251 412.653 533.251ZM415.876 535V526.453H415.612V519.16H417.922V535ZM421.022 535V518.83H423.321V535ZM431.69 535.33Q429.919 535.33 428.582 534.554Q427.246 533.779 426.503 532.388Q425.761 530.996 425.761 529.159Q425.761 527.212 426.492 525.782Q427.224 524.352 428.533 523.571Q429.842 522.79 431.58 522.79Q433.395 522.79 434.671 523.631Q435.947 524.473 436.579 526.024Q437.212 527.575 437.08 529.709H434.781V528.873Q434.759 526.805 433.994 525.815Q433.23 524.825 431.668 524.825Q429.941 524.825 429.072 525.914Q428.203 527.003 428.203 529.06Q428.203 531.018 429.072 532.091Q429.941 533.163 431.58 533.163Q432.658 533.163 433.444 532.673Q434.231 532.184 434.671 531.271L436.926 531.986Q436.233 533.581 434.825 534.456Q433.417 535.33 431.69 535.33ZM427.455 529.709V527.916H435.936V529.709ZM444.063 535.33Q442.402 535.33 441.197 534.505Q439.993 533.68 439.338 532.255Q438.684 530.831 438.684 529.049Q438.684 527.256 439.344 525.842Q440.004 524.429 441.219 523.61Q442.435 522.79 444.107 522.79Q445.79 522.79 446.939 523.61Q448.089 524.429 448.678 525.848Q449.266 527.267 449.266 529.049Q449.266 530.831 448.672 532.25Q448.078 533.669 446.923 534.5Q445.768 535.33 444.063 535.33ZM444.382 533.251Q445.515 533.251 446.23 532.712Q446.945 532.173 447.275 531.227Q447.605 530.281 447.605 529.049Q447.605 527.817 447.269 526.871Q446.934 525.925 446.236 525.397Q445.537 524.869 444.459 524.869Q443.315 524.869 442.578 525.43Q441.841 525.991 441.483 526.937Q441.126 527.883 441.126 529.049Q441.126 530.226 441.483 531.178Q441.841 532.129 442.561 532.69Q443.282 533.251 444.382 533.251ZM447.605 535V526.453H447.341V519.16H449.651V535ZM461.813 535.33Q459.987 535.33 458.711 534.516Q457.435 533.702 456.758 532.283Q456.082 530.864 456.071 529.06Q456.082 527.223 456.775 525.809Q457.468 524.396 458.755 523.593Q460.042 522.79 461.846 522.79Q463.793 522.79 465.173 523.758Q466.554 524.726 466.994 526.409L464.706 527.069Q464.365 526.068 463.589 525.513Q462.814 524.957 461.813 524.957Q460.68 524.957 459.954 525.49Q459.228 526.024 458.876 526.948Q458.524 527.872 458.513 529.06Q458.524 530.897 459.354 532.03Q460.185 533.163 461.813 533.163Q462.924 533.163 463.611 532.651Q464.299 532.14 464.662 531.183L466.994 531.733Q466.411 533.471 465.069 534.4Q463.727 535.33 461.813 535.33ZM472.393 535.33Q471.073 535.33 470.182 534.841Q469.291 534.351 468.834 533.543Q468.378 532.734 468.378 531.766Q468.378 530.864 468.697 530.182Q469.016 529.5 469.643 529.022Q470.27 528.543 471.183 528.246Q471.975 528.015 472.976 527.839Q473.977 527.663 475.082 527.509Q476.188 527.355 477.277 527.201L476.441 527.663Q476.463 526.266 475.852 525.59Q475.242 524.913 473.757 524.913Q472.822 524.913 472.041 525.348Q471.26 525.782 470.952 526.783L468.807 526.123Q469.247 524.594 470.485 523.692Q471.722 522.79 473.779 522.79Q475.374 522.79 476.556 523.334Q477.739 523.879 478.289 525.056Q478.575 525.639 478.641 526.288Q478.707 526.937 478.707 527.685V535H476.672V532.283L477.068 532.635Q476.331 533.999 475.192 534.665Q474.054 535.33 472.393 535.33ZM472.8 533.449Q473.779 533.449 474.483 533.102Q475.187 532.756 475.616 532.217Q476.045 531.678 476.177 531.095Q476.364 530.567 476.391 529.907Q476.419 529.247 476.419 528.851L477.167 529.126Q476.078 529.291 475.187 529.423Q474.296 529.555 473.576 529.681Q472.855 529.808 472.294 529.984Q471.821 530.149 471.452 530.38Q471.084 530.611 470.87 530.941Q470.655 531.271 470.655 531.744Q470.655 532.206 470.886 532.596Q471.117 532.987 471.59 533.218Q472.063 533.449 472.8 533.449ZM481.367 535V523.12H483.413V526.002L483.127 525.628Q483.347 525.056 483.699 524.578Q484.051 524.099 484.513 523.791Q484.964 523.461 485.519 523.279Q486.075 523.098 486.658 523.059Q487.241 523.021 487.78 523.12V525.276Q487.197 525.122 486.488 525.188Q485.778 525.254 485.184 525.639Q484.623 526.002 484.298 526.519Q483.974 527.036 483.831 527.668Q483.688 528.301 483.688 529.005V535ZM494.939 535.33Q493.168 535.33 491.832 534.554Q490.495 533.779 489.752 532.388Q489.01 530.996 489.01 529.159Q489.01 527.212 489.741 525.782Q490.473 524.352 491.782 523.571Q493.091 522.79 494.829 522.79Q496.644 522.79 497.92 523.631Q499.196 524.473 499.828 526.024Q500.461 527.575 500.329 529.709H498.03V528.873Q498.008 526.805 497.243 525.815Q496.479 524.825 494.917 524.825Q493.19 524.825 492.321 525.914Q491.452 527.003 491.452 529.06Q491.452 531.018 492.321 532.091Q493.19 533.163 494.829 533.163Q495.907 533.163 496.693 532.673Q497.48 532.184 497.92 531.271L500.175 531.986Q499.482 533.581 498.074 534.456Q496.666 535.33 494.939 535.33ZM490.704 529.709V527.916H499.185V529.709ZM503.682 535V522.702Q503.682 522.251 503.715 521.739Q503.748 521.228 503.908 520.727Q504.067 520.227 504.441 519.809Q504.892 519.314 505.431 519.105Q505.97 518.896 506.503 518.863Q507.037 518.83 507.488 518.83H508.984V520.722H507.598Q506.784 520.722 506.382 521.123Q505.981 521.525 505.981 522.262V535ZM501.713 524.968V523.12H508.984V524.968ZM515.021 535.319Q513.789 535.319 512.953 534.923Q512.117 534.527 511.595 533.884Q511.072 533.24 510.797 532.481Q510.522 531.722 510.423 530.996Q510.324 530.27 510.324 529.72V523.12H512.656V528.961Q512.656 529.654 512.772 530.385Q512.887 531.117 513.212 531.744Q513.536 532.371 514.125 532.756Q514.713 533.141 515.659 533.141Q516.275 533.141 516.825 532.938Q517.375 532.734 517.788 532.283Q518.2 531.832 518.437 531.095Q518.673 530.358 518.673 529.302L520.103 529.841Q520.103 531.458 519.498 532.696Q518.893 533.933 517.76 534.626Q516.627 535.319 515.021 535.319ZM518.948 535V531.568H518.673V523.12H520.994V535ZM524.094 535V518.83H526.393V535ZM529.713 535V518.83H532.012V535ZM536.718 540.28 539.017 534.021 539.05 535.869 533.869 523.12H536.267L540.139 532.965H539.435L543.131 523.12H545.463L538.907 540.28ZM547.375 535V532.569H549.806V535Z"/><g transform="translate(854 173) scale(2.65)"><path fill="#0A66C2" d="M9.4 28.6L25.8 12.2C28.5 9.5 32.1 8 36 8H78.8C82.7 8 84.7 9.5 82.5 11.7L61.5 32.7C59.4 34.8 56.5 36 53.5 36H12.5C6.8 36 5.4 32.6 9.4 28.6Z"/><path fill="#149FA5" d="M88 17.5V59.5C88 63.2 86.5 66.7 83.9 69.3L67 86.2C63.3 89.9 60 88.5 60 83.5V47.5C60 42.7 61.9 38.1 65.3 34.7L84.1 15.9C86.3 13.7 88 14.4 88 17.5Z"/><path fill="#64ACE8" d="M8 69C8 64.5 10.4 60.4 14.3 58.1L43.5 41.3C47.5 39 51 41 51 45.6V61C51 65.5 48.6 69.6 44.7 71.9L15.5 88.7C11.5 91 8 89 8 84.4Z"/></g></svg>
